# xmcd CD database file
#
# Track frame offsets:
#	150
#	20030
#	42781
#	65559
#	95477
#	117235
#	141673
#	165476
#	188127
#	206828
#	235113
#	259176
#	280014
#	301275
#
# Disc length: 4220 seconds
#
# Revision: 0
# Processed by: cddbd v1.5.1PL0 Copyright (c) Steve Scherf et al.
# Submitted via: CDex 1.51
#
DISCID=cb107a0e
DTITLE=Kenny G - Brethless
DYEAR=1900
DGENRE=Jazz
TTITLE0=Joy of Life
TTITLE1=Forever in Love 
TTITLE2=In the Rain 
TTITLE3=Sentimental 
TTITLE4=By the Time This Night Is Over 
TTITLE5=End of the Night 
TTITLE6=Alone 
TTITLE7=Morning 
TTITLE8=Even If My Heart Would Break
TTITLE9=G Bop
TTITLE10=Sister Rose
TTITLE11=Year Ago
TTITLE12=Homeland
TTITLE13=Wedding Song
EXTD=
EXTT0=
EXTT1=
EXTT2=
EXTT3=
EXTT4=
EXTT5=
EXTT6=
EXTT7=
EXTT8=
EXTT9=
EXTT10=
EXTT11=
EXTT12=
EXTT13=
PLAYORDER=
